<?xml version="1.0" encoding="UTF-8"?>
<svg id="Layer_2" data-name="Layer 2" xmlns="http://www.w3.org/2000/svg" viewBox="0 0 130.2 37.35">
  <defs>
    <style>
      .cls-1 {
        fill: #fff;
      }
    </style>
  </defs>
  <g id="Layer_1-2" data-name="Layer 1">
    <g>
      <polygon class="cls-1" points="93.13 37.35 70.79 37.34 107.95 .22 130.2 .28 93.13 37.35"/>
      <path class="cls-1" d="M77.11,26.5l-10.86,10.84-54.56-.07c-1.94,0-3.72-.41-5.47-1.02-3.04-1.27-5.19-3.36-5.89-6.58-.78-3.6-.14-7.26,1.63-10.49,1.05-1.93,2.29-3.61,3.69-5.3,1.84-2.22,3.71-4.28,5.85-6.21C16.5,3.18,22.23.95,28.9.27l4.05-.27,70.49.23-13.8,13.75-55.04.17c-1.34,0-2.68.09-3.99.34-.29.05-.58.11-.86.17-1.82.39-4.61,1.48-6.14,2.54-1.17.81-2.22,1.79-2.95,3.01-.78,1.31-1.08,2.17-1.12,4.06-.02.83.48,1.62,1.27,1.86.69.21,1.37.27,2.17.32l54.15.04Z"/>
    </g>
  </g>
</svg>