<svg preserveAspectRatio="none" width="100%" height="100%" overflow="visible" style="display: block;" viewBox="0 0 113 113" fill="none" xmlns="http://www.w3.org/2000/svg">
<g id="Isolation_Mode" clip-path="url(#clip0_0_10)">
<path id="Vector" d="M51.46 112.79L51.8294 108.663" stroke="var(--stroke-0, #221F20)" stroke-width="0.267693" stroke-miterlimit="10"/>
<path id="Vector_2" d="M47.9345 112.363L48.5636 108.268" stroke="var(--stroke-0, #221F20)" stroke-width="0.267693" stroke-miterlimit="10"/>
<path id="Vector_3" d="M44.4438 111.716L45.3285 107.667" stroke="var(--stroke-0, #221F20)" stroke-width="0.267693" stroke-miterlimit="10"/>
<path id="Vector_4" d="M41.0012 110.85L42.1376 106.864" stroke="var(--stroke-0, #221F20)" stroke-width="0.267693" stroke-miterlimit="10"/>
<path id="Vector_5" d="M37.6189 109.769L39.0029 105.862" stroke="var(--stroke-0, #221F20)" stroke-width="0.267693" stroke-miterlimit="10"/>
<path id="Vector_6" d="M34.3116 108.479L35.9392 104.667" stroke="var(--stroke-0, #221F20)" stroke-width="0.267693" stroke-miterlimit="10"/>
<path id="Vector_7" d="M31.0912 106.983L32.9544 103.28" stroke="var(--stroke-0, #221F20)" stroke-width="0.267693" stroke-miterlimit="10"/>
<path id="Vector_8" d="M27.9713 105.288L30.0633 101.71" stroke="var(--stroke-0, #221F20)" stroke-width="0.267693" stroke-miterlimit="10"/>
<path id="Vector_9" d="M24.9651 103.4L27.2766 99.9604" stroke="var(--stroke-0, #221F20)" stroke-width="0.267693" stroke-miterlimit="10"/>
<path id="Vector_10" d="M22.082 101.327L24.6064 98.0399" stroke="var(--stroke-0, #221F20)" stroke-width="0.267693" stroke-miterlimit="10"/>
<path id="Vector_11" d="M19.3355 99.0771L22.0606 95.9545" stroke="var(--stroke-0, #221F20)" stroke-width="0.267693" stroke-miterlimit="10"/>
<path id="Vector_12" d="M16.7348 96.6602L19.6514 93.7156" stroke="var(--stroke-0, #221F20)" stroke-width="0.267693" stroke-miterlimit="10"/>
<path id="Vector_13" d="M14.2921 94.0836L17.3867 91.3277" stroke="var(--stroke-0, #221F20)" stroke-width="0.267693" stroke-miterlimit="10"/>
<path id="Vector_14" d="M12.0154 91.3602L15.2773 88.8037" stroke="var(--stroke-0, #221F20)" stroke-width="0.267693" stroke-miterlimit="10"/>
<path id="Vector_15" d="M9.91402 88.4986L13.3298 86.1509" stroke="var(--stroke-0, #221F20)" stroke-width="0.267693" stroke-miterlimit="10"/>
<path id="Vector_16" d="M7.99733 85.5092L11.5536 83.3824" stroke="var(--stroke-0, #221F20)" stroke-width="0.267693" stroke-miterlimit="10"/>
<path id="Vector_17" d="M6.27072 82.4073L9.95418 80.5067" stroke="var(--stroke-0, #221F20)" stroke-width="0.267693" stroke-miterlimit="10"/>
<path id="Vector_18" d="M4.74352 79.2006L8.53941 77.5355" stroke="var(--stroke-0, #221F20)" stroke-width="0.267693" stroke-miterlimit="10"/>
<path id="Vector_19" d="M3.41978 75.9075L7.31338 74.4833" stroke="var(--stroke-0, #221F20)" stroke-width="0.267693" stroke-miterlimit="10"/>
<path id="Vector_20" d="M2.30618 72.5353L6.28008 71.3587" stroke="var(--stroke-0, #221F20)" stroke-width="0.267693" stroke-miterlimit="10"/>
<path id="Vector_21" d="M1.40673 69.1013L5.44622 68.1777" stroke="var(--stroke-0, #221F20)" stroke-width="0.267693" stroke-miterlimit="10"/>
<path id="Vector_22" d="M0.724109 65.6167L4.81446 64.9475" stroke="var(--stroke-0, #221F20)" stroke-width="0.267693" stroke-miterlimit="10"/>
<path id="Vector_23" d="M0.261005 62.0963L4.38616 61.6854" stroke="var(--stroke-0, #221F20)" stroke-width="0.267693" stroke-miterlimit="10"/>
<path id="Vector_24" d="M0.0214145 58.5545L4.16263 58.4046" stroke="var(--stroke-0, #221F20)" stroke-width="0.267693" stroke-miterlimit="10"/>
<path id="Vector_25" d="M0.00401381 55.005L4.14657 55.1148" stroke="var(--stroke-0, #221F20)" stroke-width="0.267693" stroke-miterlimit="10"/>
<path id="Vector_26" d="M0.208803 51.4593L4.33663 51.8287" stroke="var(--stroke-0, #221F20)" stroke-width="0.267693" stroke-miterlimit="10"/>
<path id="Vector_27" d="M0.637111 47.9338L4.73282 48.5629" stroke="var(--stroke-0, #221F20)" stroke-width="0.267693" stroke-miterlimit="10"/>
<path id="Vector_28" d="M1.28493 44.4431L5.33379 45.3278" stroke="var(--stroke-0, #221F20)" stroke-width="0.267693" stroke-miterlimit="10"/>
<path id="Vector_29" d="M2.15092 41.0016L6.13553 42.1379" stroke="var(--stroke-0, #221F20)" stroke-width="0.267693" stroke-miterlimit="10"/>
<path id="Vector_30" d="M3.23106 37.6194L7.13671 39.0047" stroke="var(--stroke-0, #221F20)" stroke-width="0.267693" stroke-miterlimit="10"/>
<path id="Vector_31" d="M4.52134 34.311L8.33329 35.9386" stroke="var(--stroke-0, #221F20)" stroke-width="0.267693" stroke-miterlimit="10"/>
<path id="Vector_32" d="M6.01774 31.0909L9.71994 32.9541" stroke="var(--stroke-0, #221F20)" stroke-width="0.267693" stroke-miterlimit="10"/>
<path id="Vector_33" d="M7.71224 27.9707L11.29 30.0627" stroke="var(--stroke-0, #221F20)" stroke-width="0.267693" stroke-miterlimit="10"/>
<path id="Vector_34" d="M9.59948 24.9648L13.0393 27.2763" stroke="var(--stroke-0, #221F20)" stroke-width="0.267693" stroke-miterlimit="10"/>
<path id="Vector_35" d="M11.6728 22.0819L14.96 24.6062" stroke="var(--stroke-0, #221F20)" stroke-width="0.267693" stroke-miterlimit="10"/>
<path id="Vector_36" d="M13.9227 19.335L17.044 22.0602" stroke="var(--stroke-0, #221F20)" stroke-width="0.267693" stroke-miterlimit="10"/>
<path id="Vector_37" d="M16.34 16.7344L19.2846 19.6509" stroke="var(--stroke-0, #221F20)" stroke-width="0.267693" stroke-miterlimit="10"/>
<path id="Vector_38" d="M18.9165 14.2929L21.6724 17.3874" stroke="var(--stroke-0, #221F20)" stroke-width="0.267693" stroke-miterlimit="10"/>
<path id="Vector_39" d="M21.6403 12.0149L24.1968 15.2768" stroke="var(--stroke-0, #221F20)" stroke-width="0.267693" stroke-miterlimit="10"/>
<path id="Vector_40" d="M24.502 9.91355L26.8483 13.3293" stroke="var(--stroke-0, #221F20)" stroke-width="0.267693" stroke-miterlimit="10"/>
<path id="Vector_41" d="M27.4908 7.99741L29.6176 11.5537" stroke="var(--stroke-0, #221F20)" stroke-width="0.267693" stroke-miterlimit="10"/>
<path id="Vector_42" d="M30.5933 6.27086L32.4926 9.95432" stroke="var(--stroke-0, #221F20)" stroke-width="0.267693" stroke-miterlimit="10"/>
<path id="Vector_43" d="M33.7989 4.74403L35.4627 8.53992" stroke="var(--stroke-0, #221F20)" stroke-width="0.267693" stroke-miterlimit="10"/>
<path id="Vector_44" d="M37.0929 3.41981L38.5157 7.31341" stroke="var(--stroke-0, #221F20)" stroke-width="0.267693" stroke-miterlimit="10"/>
<path id="Vector_45" d="M40.4645 2.30689L41.6397 6.2808" stroke="var(--stroke-0, #221F20)" stroke-width="0.267693" stroke-miterlimit="10"/>
<path id="Vector_46" d="M43.899 1.40671L44.8226 5.4462" stroke="var(--stroke-0, #221F20)" stroke-width="0.267693" stroke-miterlimit="10"/>
<path id="Vector_47" d="M47.383 0.723617L48.0509 4.81397" stroke="var(--stroke-0, #221F20)" stroke-width="0.267693" stroke-miterlimit="10"/>
<path id="Vector_48" d="M50.9032 0.260502L51.3141 4.38565" stroke="var(--stroke-0, #221F20)" stroke-width="0.267693" stroke-miterlimit="10"/>
<path id="Vector_49" d="M54.4448 0.0217085L54.596 4.16292" stroke="var(--stroke-0, #221F20)" stroke-width="0.267693" stroke-miterlimit="10"/>
<path id="Vector_50" d="M57.9957 0.0043417L57.886 4.14689" stroke="var(--stroke-0, #221F20)" stroke-width="0.267693" stroke-miterlimit="10"/>
<path id="Vector_51" d="M61.54 0.208402L61.1706 4.33623" stroke="var(--stroke-0, #221F20)" stroke-width="0.267693" stroke-miterlimit="10"/>
<path id="Vector_52" d="M65.0642 0.636783L64.4364 4.73249" stroke="var(--stroke-0, #221F20)" stroke-width="0.267693" stroke-miterlimit="10"/>
<path id="Vector_53" d="M68.5562 1.28514L67.6715 5.334" stroke="var(--stroke-0, #221F20)" stroke-width="0.267693" stroke-miterlimit="10"/>
<path id="Vector_54" d="M71.9988 2.15059L70.8624 6.1352" stroke="var(--stroke-0, #221F20)" stroke-width="0.267693" stroke-miterlimit="10"/>
<path id="Vector_55" d="M75.3811 3.23167L73.9958 7.13732" stroke="var(--stroke-0, #221F20)" stroke-width="0.267693" stroke-miterlimit="10"/>
<path id="Vector_56" d="M78.6884 4.52116L77.0608 8.33311" stroke="var(--stroke-0, #221F20)" stroke-width="0.267693" stroke-miterlimit="10"/>
<path id="Vector_57" d="M81.9088 6.0176L80.0456 9.71979" stroke="var(--stroke-0, #221F20)" stroke-width="0.267693" stroke-miterlimit="10"/>
<path id="Vector_58" d="M85.0274 7.71231L82.9354 11.29" stroke="var(--stroke-0, #221F20)" stroke-width="0.267693" stroke-miterlimit="10"/>
<path id="Vector_59" d="M88.0349 9.5995L85.7221 13.0394" stroke="var(--stroke-0, #221F20)" stroke-width="0.267693" stroke-miterlimit="10"/>
<path id="Vector_60" d="M90.918 11.6734L88.3936 14.9607" stroke="var(--stroke-0, #221F20)" stroke-width="0.267693" stroke-miterlimit="10"/>
<path id="Vector_61" d="M93.6645 13.9224L90.9394 17.0437" stroke="var(--stroke-0, #221F20)" stroke-width="0.267693" stroke-miterlimit="10"/>
<path id="Vector_62" d="M96.2652 16.3407L93.3486 19.2853" stroke="var(--stroke-0, #221F20)" stroke-width="0.267693" stroke-miterlimit="10"/>
<path id="Vector_63" d="M98.7079 18.9168L95.6133 21.6727" stroke="var(--stroke-0, #221F20)" stroke-width="0.267693" stroke-miterlimit="10"/>
<path id="Vector_64" d="M100.985 21.6405L97.7227 24.197" stroke="var(--stroke-0, #221F20)" stroke-width="0.267693" stroke-miterlimit="10"/>
<path id="Vector_65" d="M103.086 24.5017L99.6689 26.848" stroke="var(--stroke-0, #221F20)" stroke-width="0.267693" stroke-miterlimit="10"/>
<path id="Vector_66" d="M105.003 27.4902L101.446 29.617" stroke="var(--stroke-0, #221F20)" stroke-width="0.267693" stroke-miterlimit="10"/>
<path id="Vector_67" d="M106.729 30.5931L103.046 32.4924" stroke="var(--stroke-0, #221F20)" stroke-width="0.267693" stroke-miterlimit="10"/>
<path id="Vector_68" d="M108.256 33.7987L104.461 35.4624" stroke="var(--stroke-0, #221F20)" stroke-width="0.267693" stroke-miterlimit="10"/>
<path id="Vector_69" d="M109.579 37.0926L105.687 38.5154" stroke="var(--stroke-0, #221F20)" stroke-width="0.267693" stroke-miterlimit="10"/>
<path id="Vector_70" d="M110.694 40.4647L106.719 41.6398" stroke="var(--stroke-0, #221F20)" stroke-width="0.267693" stroke-miterlimit="10"/>
<path id="Vector_71" d="M111.593 43.8989L107.552 44.8225" stroke="var(--stroke-0, #221F20)" stroke-width="0.267693" stroke-miterlimit="10"/>
<path id="Vector_72" d="M112.276 47.3824L108.186 48.0503" stroke="var(--stroke-0, #221F20)" stroke-width="0.267693" stroke-miterlimit="10"/>
<path id="Vector_73" d="M112.738 50.9035L108.614 51.3145" stroke="var(--stroke-0, #221F20)" stroke-width="0.267693" stroke-miterlimit="10"/>
<path id="Vector_74" d="M112.979 54.4449L108.837 54.5962" stroke="var(--stroke-0, #221F20)" stroke-width="0.267693" stroke-miterlimit="10"/>
<path id="Vector_75" d="M112.996 57.9962L108.853 57.8864" stroke="var(--stroke-0, #221F20)" stroke-width="0.267693" stroke-miterlimit="10"/>
<path id="Vector_76" d="M112.791 61.5396L108.663 61.1702" stroke="var(--stroke-0, #221F20)" stroke-width="0.267693" stroke-miterlimit="10"/>
<path id="Vector_77" d="M112.363 65.0644L108.266 64.4366" stroke="var(--stroke-0, #221F20)" stroke-width="0.267693" stroke-miterlimit="10"/>
<path id="Vector_78" d="M111.715 68.5559L107.666 67.6712" stroke="var(--stroke-0, #221F20)" stroke-width="0.267693" stroke-miterlimit="10"/>
<path id="Vector_79" d="M110.849 71.9987L106.863 70.8623" stroke="var(--stroke-0, #221F20)" stroke-width="0.267693" stroke-miterlimit="10"/>
<path id="Vector_80" d="M109.769 75.3809L105.862 73.9956" stroke="var(--stroke-0, #221F20)" stroke-width="0.267693" stroke-miterlimit="10"/>
<path id="Vector_81" d="M108.479 78.6884L104.667 77.0608" stroke="var(--stroke-0, #221F20)" stroke-width="0.267693" stroke-miterlimit="10"/>
<path id="Vector_82" d="M106.982 81.9082L103.28 80.045" stroke="var(--stroke-0, #221F20)" stroke-width="0.267693" stroke-miterlimit="10"/>
<path id="Vector_83" d="M105.288 85.0272L101.71 82.9352" stroke="var(--stroke-0, #221F20)" stroke-width="0.267693" stroke-miterlimit="10"/>
<path id="Vector_84" d="M103.401 88.0354L99.9607 85.7225" stroke="var(--stroke-0, #221F20)" stroke-width="0.267693" stroke-miterlimit="10"/>
<path id="Vector_85" d="M101.327 90.9185L98.04 88.3941" stroke="var(--stroke-0, #221F20)" stroke-width="0.267693" stroke-miterlimit="10"/>
<path id="Vector_86" d="M99.0773 93.6649L95.9546 90.9398" stroke="var(--stroke-0, #221F20)" stroke-width="0.267693" stroke-miterlimit="10"/>
<path id="Vector_87" d="M96.66 96.2645L93.7154 93.348" stroke="var(--stroke-0, #221F20)" stroke-width="0.267693" stroke-miterlimit="10"/>
<path id="Vector_88" d="M94.0835 98.7074L91.3276 95.6115" stroke="var(--stroke-0, #221F20)" stroke-width="0.267693" stroke-miterlimit="10"/>
<path id="Vector_89" d="M91.3597 100.985L88.8032 97.723" stroke="var(--stroke-0, #221F20)" stroke-width="0.267693" stroke-miterlimit="10"/>
<path id="Vector_90" d="M88.4967 103.087L86.1504 99.6695" stroke="var(--stroke-0, #221F20)" stroke-width="0.267693" stroke-miterlimit="10"/>
<path id="Vector_91" d="M85.5092 105.003L83.3824 101.447" stroke="var(--stroke-0, #221F20)" stroke-width="0.267693" stroke-miterlimit="10"/>
<path id="Vector_92" d="M82.4067 106.729L80.5061 103.044" stroke="var(--stroke-0, #221F20)" stroke-width="0.267693" stroke-miterlimit="10"/>
<path id="Vector_93" d="M79.201 108.257L77.536 104.461" stroke="var(--stroke-0, #221F20)" stroke-width="0.267693" stroke-miterlimit="10"/>
<path id="Vector_94" d="M75.9071 109.579L74.483 105.687" stroke="var(--stroke-0, #221F20)" stroke-width="0.267693" stroke-miterlimit="10"/>
<path id="Vector_95" d="M72.5355 110.694L71.359 106.719" stroke="var(--stroke-0, #221F20)" stroke-width="0.267693" stroke-miterlimit="10"/>
<path id="Vector_96" d="M69.101 111.593L68.1774 107.553" stroke="var(--stroke-0, #221F20)" stroke-width="0.267693" stroke-miterlimit="10"/>
<path id="Vector_97" d="M65.617 112.275L64.9491 108.185" stroke="var(--stroke-0, #221F20)" stroke-width="0.267693" stroke-miterlimit="10"/>
<path id="Vector_98" d="M62.0968 112.737L61.6859 108.613" stroke="var(--stroke-0, #221F20)" stroke-width="0.267693" stroke-miterlimit="10"/>
<path id="Vector_99" d="M58.5539 112.979L58.404 108.838" stroke="var(--stroke-0, #221F20)" stroke-width="0.267693" stroke-miterlimit="10"/>
<path id="Vector_100" d="M55.0043 112.996L55.114 108.854" stroke="var(--stroke-0, #221F20)" stroke-width="0.267693" stroke-miterlimit="10"/>
</g>
<defs>
<clipPath id="clip0_0_10">
<rect width="113" height="113" fill="white"/>
</clipPath>
</defs>
</svg>
