<svg preserveAspectRatio="none" width="100%" height="100%" overflow="visible" style="display: block;" viewBox="0 0 16.6161 12.9791" fill="none" xmlns="http://www.w3.org/2000/svg">
<path id="sports_motorsports" d="M9.96966 11.3567C11.3543 11.3567 12.5313 10.8835 13.5006 9.93713C14.4699 8.99073 14.9545 7.84154 14.9545 6.48955C14.9545 5.12404 14.4456 3.97147 13.4279 3.03184C12.4102 2.0922 11.1882 1.62239 9.76196 1.62239C9.09732 1.62239 8.45344 1.69675 7.83034 1.84547C7.20724 1.99419 6.6049 2.21726 6.02334 2.5147L8.10035 3.3259C8.66807 3.55573 9.12155 3.91063 9.46079 4.39059C9.80004 4.87054 9.96966 5.40796 9.96966 6.00284C9.96966 6.81403 9.68234 7.50354 9.1077 8.07138C8.53306 8.63922 7.83726 8.92313 7.0203 8.92313H1.70315C1.67546 9.24761 1.66161 9.61603 1.66161 10.0284V11.3567H9.96966ZM1.99393 7.30075H6.97876C7.35263 7.30075 7.66764 7.17569 7.9238 6.92557C8.17997 6.67545 8.30805 6.36787 8.30805 6.00284C8.30805 5.74596 8.23536 5.51274 8.08997 5.30318C7.94457 5.09362 7.74033 4.93476 7.47725 4.8266L4.40327 3.60981C3.8217 4.11005 3.32668 4.67789 2.9182 5.31332C2.50972 5.94876 2.20163 6.61123 1.99393 7.30075ZM9.96966 12.9791H1.66161C1.20467 12.9791 0.813497 12.8202 0.488098 12.5025C0.162699 12.1848 0 11.8029 0 11.3567V9.53153C0 8.20658 0.256165 6.96613 0.768495 5.81018C1.28082 4.65423 1.97662 3.64699 2.85589 2.78848C3.73516 1.92997 4.77021 1.25059 5.96103 0.750354C7.15185 0.250118 8.41883 0 9.76196 0C10.7035 0 11.5897 0.168999 12.4205 0.506996C13.2513 0.844994 13.9783 1.30805 14.6014 1.89617C15.2245 2.48428 15.7161 3.17042 16.0761 3.95457C16.4361 4.73872 16.6161 5.58372 16.6161 6.48955C16.6161 7.38187 16.443 8.22348 16.0969 9.01439C15.7507 9.80531 15.2764 10.4948 14.6741 11.0829C14.0718 11.6711 13.3656 12.1341 12.5555 12.4721C11.7455 12.8101 10.8835 12.9791 9.96966 12.9791Z" fill="var(--fill-0, white)"/>
</svg>
