<svg preserveAspectRatio="none" width="100%" height="100%" overflow="visible" style="display: block;" viewBox="0 0 20 20" fill="none" xmlns="http://www.w3.org/2000/svg">
<g id="accessibility">
<mask id="mask0_0_119" style="mask-type:alpha" maskUnits="userSpaceOnUse" x="0" y="0" width="20" height="20">
<rect id="Bounding box" x="3.5903e-06" y="1.43099e-05" width="20" height="20" fill="var(--fill-0, #D9D9D9)"/>
</mask>
<g mask="url(#mask0_0_119)">
<path id="accessibility_2" d="M9.43263 3.50773C9.1015 3.21102 8.93593 2.85432 8.93593 2.43766C8.93593 2.02099 9.1015 1.6643 9.43263 1.36758C9.76375 1.07086 10.1618 0.922506 10.6268 0.922506C11.0918 0.922506 11.4899 1.07086 11.821 1.36758C12.1521 1.6643 12.3177 2.02099 12.3177 2.43766C12.3177 2.85432 12.1521 3.21102 11.821 3.50773C11.4899 3.80445 11.0918 3.95281 10.6268 3.95281C10.1618 3.95281 9.76375 3.80445 9.43263 3.50773ZM8.0905 16.074V6.22554H3.01789V4.71038H18.2357V6.22554H13.1631V16.074H11.4722V11.5286H9.78137V16.074H8.0905Z" fill="var(--fill-0, white)"/>
</g>
</g>
</svg>
