<svg preserveAspectRatio="none" width="100%" height="100%" overflow="visible" style="display: block;" viewBox="0 0 18 16" fill="none" xmlns="http://www.w3.org/2000/svg">
<g id="Frame 214">
<path id="fork_spoon" d="M3.74023 8.07715L3.15039 7.95508C2.37325 7.79389 1.79021 7.47646 1.35938 7.02734C0.926744 6.57635 0.740234 6.10799 0.740234 5.59961V0.740234H1.25977V5.54102H3.74023V0.740234H4.25977V5.54102H6.74023V0.740234H7.25977V5.59961C7.25977 6.10799 7.07326 6.57635 6.64062 7.02734C6.20979 7.47646 5.62675 7.79389 4.84961 7.95508L4.25977 8.07715V15.2598H3.74023V8.07715ZM13.7402 7.81055L13.1904 7.66406C12.4587 7.46884 11.8781 7.06757 11.4268 6.43848C10.97 5.80183 10.7402 5.08345 10.7402 4.25977C10.7403 3.25392 11.0659 2.43181 11.7129 1.74902C12.3619 1.06432 13.1114 0.740234 14 0.740234C14.8865 0.740234 15.6356 1.06596 16.2852 1.75684C16.9341 2.44723 17.2598 3.27427 17.2598 4.28027C17.2597 5.10382 17.0301 5.81764 16.5752 6.44629C16.1245 7.06902 15.5433 7.46831 14.8096 7.66406L14.2598 7.81055V15.2598H13.7402V7.81055Z" fill="var(--fill-0, white)" stroke="var(--stroke-0, white)" stroke-width="1.48115"/>
</g>
</svg>
