<svg preserveAspectRatio="none" width="100%" height="100%" overflow="visible" style="display: block;" viewBox="0 0 14.5866 15.9126" fill="none" xmlns="http://www.w3.org/2000/svg">
<g id="Frame 215">
<path id="fitness_center" d="M8.32465 15.9126L7.29328 14.7875L9.90854 11.9345L3.64664 5.10329L1.03137 7.9563L0 6.83117L1.03137 5.66585L0 4.54072L1.54706 2.85302L0.515686 1.6877L1.54706 0.562567L2.61527 1.6877L4.16232 0L5.1937 1.12513L6.2619 0L7.29328 1.12513L4.67801 3.97815L10.9399 10.8093L13.5552 7.9563L14.5866 9.08144L13.5552 10.2468L14.5866 11.3719L13.0395 13.0596L14.0709 14.2249L13.0395 15.35L11.9713 14.2249L10.4242 15.9126L9.39286 14.7875L8.32465 15.9126Z" fill="var(--fill-0, white)"/>
</g>
</svg>
