<svg preserveAspectRatio="none" width="100%" height="100%" overflow="visible" style="display: block;" viewBox="0 0 19.3132 19.3132" fill="none" xmlns="http://www.w3.org/2000/svg">
<g id="edit_document">
<mask id="mask0_0_112" style="mask-type:alpha" maskUnits="userSpaceOnUse" x="0" y="0" width="20" height="20">
<rect id="Bounding box" width="19.3132" height="19.3132" fill="var(--fill-0, #D9D9D9)"/>
</mask>
<g mask="url(#mask0_0_112)">
<path id="edit_document_2" d="M11.2661 20.1022V17.3875L15.7121 12.5318C15.8328 12.3994 15.9669 12.3038 16.1145 12.2449C16.262 12.1861 16.4095 12.1566 16.5571 12.1566C16.718 12.1566 16.8723 12.1897 17.0198 12.256C17.1673 12.3222 17.3014 12.4215 17.4221 12.5539L18.1665 13.3705C18.2738 13.503 18.3576 13.6501 18.418 13.812C18.4783 13.9738 18.5085 14.1357 18.5085 14.2975C18.5085 14.4594 18.4817 14.6249 18.428 14.7941C18.3744 14.9633 18.2872 15.1142 18.1665 15.2466L13.7406 20.1022H11.2661ZM12.4731 18.778H13.2376L15.6719 16.0853L15.3098 15.6659L14.9275 15.2687L12.4731 17.9393V18.778ZM4.82831 20.1022C4.38571 20.1022 4.00683 19.9294 3.69164 19.5836C3.37646 19.2378 3.21887 18.8221 3.21887 18.3366V4.21102C3.21887 3.72545 3.37646 3.30978 3.69164 2.964C4.00683 2.61822 4.38571 2.44533 4.82831 2.44533H11.2661L16.0944 7.7424V10.3909H14.4849V8.62525H10.4613V4.21102H4.82831V18.3366H9.65662V20.1022H4.82831ZM15.3098 15.6659L14.9275 15.2687L15.6719 16.0853L15.3098 15.6659Z" fill="var(--fill-0, white)"/>
</g>
</g>
</svg>
