<?xml version="1.0" encoding="UTF-8"?>
<svg id="Layer_2" data-name="Layer 2" xmlns="http://www.w3.org/2000/svg" viewBox="0 0 400.56 237.02">
  <defs>
    <style>
      .cls-1 {
        fill: #fff;
      }

      .cls-2 {
        fill: #1f1e1e;
      }
    </style>
  </defs>
  <g id="Layer_1-2" data-name="Layer 1">
    <g>
      <rect class="cls-2" width="400.56" height="237.02"/>
      <g>
        <polygon class="cls-1" points="229.51 138.51 207.17 138.49 244.33 101.38 266.58 101.44 229.51 138.51"/>
        <g>
          <path class="cls-1" d="M158.47,119.45l-19.91,19-21.05.02,29.08-28.53c7.73-7.58,17.19-8.55,27.79-8.53l65.56.04-13.72,13.75-54.91.1c-4.59,0-9.45.88-12.85,4.13Z"/>
          <path class="cls-1" d="M174.08,130.51c-2.86,0-5.2,1.15-6.97,2.73l-5.3,5.28-19.38-.09,15.93-15.82c3.34-3.31,7.26-4.5,12.08-4.97l53.38-.04-12.85,12.86-36.88.04Z"/>
        </g>
      </g>
    </g>
  </g>
</svg>