<svg width="1418" height="834" viewBox="0 0 1418 834" fill="none" xmlns="http://www.w3.org/2000/svg">
<g clip-path="url(#clip0_1613_7681)">
<rect width="1418" height="834" fill="#1F1E1E"/>
<line y1="-0.5" x2="836.214" y2="-0.5" transform="matrix(-0.0727232 0.997352 -0.930865 -0.365363 1148.7 0)" stroke="#313131"/>
<line y1="-0.5" x2="836.214" y2="-0.5" transform="matrix(-0.0727232 0.997352 -0.930865 -0.365363 1416.39 0)" stroke="#313131"/>
<line y1="-0.5" x2="836.214" y2="-0.5" transform="matrix(-0.0727232 0.997352 -0.930865 -0.365363 1104.11 0)" stroke="#313131"/>
<line y1="-0.5" x2="836.214" y2="-0.5" transform="matrix(-0.0727232 0.997352 -0.930865 -0.365363 1371.79 0)" stroke="#313131"/>
<line y1="-0.5" x2="836.214" y2="-0.5" transform="matrix(-0.0727232 0.997352 -0.930865 -0.365363 1059.51 0)" stroke="#313131"/>
<line y1="-0.5" x2="836.214" y2="-0.5" transform="matrix(-0.0727232 0.997352 -0.930865 -0.365363 1327.2 0)" stroke="#313131"/>
<line y1="-0.5" x2="836.214" y2="-0.5" transform="matrix(-0.0727232 0.997352 -0.930865 -0.365363 1014.92 0)" stroke="#313131"/>
<line y1="-0.5" x2="836.214" y2="-0.5" transform="matrix(-0.0727232 0.997352 -0.930865 -0.365363 1282.6 0)" stroke="#313131"/>
<line y1="-0.5" x2="836.214" y2="-0.5" transform="matrix(-0.0727232 0.997352 -0.930865 -0.365363 970.32 0)" stroke="#313131"/>
<line y1="-0.5" x2="836.214" y2="-0.5" transform="matrix(-0.0727232 0.997352 -0.930865 -0.365363 1238 0)" stroke="#313131"/>
<line y1="-0.5" x2="836.214" y2="-0.5" transform="matrix(-0.0727232 0.997352 -0.930865 -0.365363 925.725 0)" stroke="#313131"/>
<line y1="-0.5" x2="836.214" y2="-0.5" transform="matrix(-0.0727232 0.997352 -0.930865 -0.365363 1193.41 0)" stroke="#313131"/>
<line y1="-0.5" x2="836.214" y2="-0.5" transform="matrix(-0.0727232 0.997352 -0.930865 -0.365363 1461.41 0)" stroke="#313131"/>
<line y1="-0.5" x2="836.214" y2="-0.5" transform="matrix(-0.0727232 0.997352 -0.930865 -0.365363 881.129 0)" stroke="#313131"/>
<line y1="-0.5" x2="836.214" y2="-0.5" transform="matrix(-0.0727232 0.997352 -0.930865 -0.365363 1148.81 0)" stroke="#313131"/>
<line y1="-0.5" x2="836.214" y2="-0.5" transform="matrix(-0.0727232 0.997352 -0.930865 -0.365363 1416.81 0)" stroke="#313131"/>
<line y1="-0.5" x2="836.214" y2="-0.5" transform="matrix(-0.0727232 0.997352 -0.930865 -0.365363 836.533 0)" stroke="#313131"/>
<line y1="-0.5" x2="836.214" y2="-0.5" transform="matrix(-0.0727232 0.997352 -0.930865 -0.365363 791.938 0)" stroke="#313131"/>
<line y1="-0.5" x2="836.214" y2="-0.5" transform="matrix(-0.0727232 0.997352 -0.930865 -0.365363 747.342 0)" stroke="#313131"/>
<line y1="-0.5" x2="836.214" y2="-0.5" transform="matrix(-0.0727232 0.997352 -0.930865 -0.365363 702.746 0)" stroke="#313131"/>
<line y1="-0.5" x2="836.214" y2="-0.5" transform="matrix(-0.0727232 0.997352 -0.930865 -0.365363 658.15 0)" stroke="#313131"/>
<line y1="-0.5" x2="836.214" y2="-0.5" transform="matrix(-0.0727232 0.997352 -0.930865 -0.365363 613.555 0)" stroke="#313131"/>
<line y1="-0.5" x2="836.214" y2="-0.5" transform="matrix(-0.0727232 0.997352 -0.930865 -0.365363 568.959 0)" stroke="#313131"/>
<line y1="-0.5" x2="836.214" y2="-0.5" transform="matrix(-0.0727232 0.997352 -0.930865 -0.365363 524.363 0)" stroke="#313131"/>
<line y1="-0.5" x2="836.214" y2="-0.5" transform="matrix(-0.0727232 0.997352 -0.930865 -0.365363 479.768 0)" stroke="#313131"/>
<line y1="-0.5" x2="836.214" y2="-0.5" transform="matrix(-0.0727232 0.997352 -0.930865 -0.365363 435.172 0)" stroke="#313131"/>
<line y1="-0.5" x2="836.214" y2="-0.5" transform="matrix(-0.0727232 0.997352 -0.930865 -0.365363 390.576 0)" stroke="#313131"/>
<line y1="-0.5" x2="836.214" y2="-0.5" transform="matrix(-0.0727232 0.997352 -0.930865 -0.365363 345.98 0)" stroke="#313131"/>
<line y1="-0.5" x2="836.214" y2="-0.5" transform="matrix(-0.0727232 0.997352 -0.930865 -0.365363 301.387 0)" stroke="#313131"/>
<line y1="-0.5" x2="836.214" y2="-0.5" transform="matrix(-0.0727232 0.997352 -0.930865 -0.365363 256.791 0)" stroke="#313131"/>
<line y1="-0.5" x2="836.214" y2="-0.5" transform="matrix(-0.0727232 0.997352 -0.930865 -0.365363 212.195 0)" stroke="#313131"/>
<line y1="-0.5" x2="836.214" y2="-0.5" transform="matrix(-0.0727232 0.997352 -0.930865 -0.365363 167.6 0)" stroke="#313131"/>
<line y1="-0.5" x2="836.214" y2="-0.5" transform="matrix(-0.0727232 0.997352 -0.930865 -0.365363 123.004 0)" stroke="#313131"/>
<line y1="-0.5" x2="836.214" y2="-0.5" transform="matrix(-0.0727232 0.997352 -0.930865 -0.365363 78.4082 0)" stroke="#313131"/>
<line y1="-0.5" x2="836.214" y2="-0.5" transform="matrix(-0.0727232 0.997352 -0.930865 -0.365363 33.8125 0)" stroke="#313131"/>
<line x1="1171" y1="60.5" x2="-27" y2="60.5002" stroke="#313131"/>
<line x1="2004" y1="60.5" x2="806" y2="60.5002" stroke="#313131"/>
<line x1="2035" y1="303.5" x2="837" y2="303.5" stroke="#313131"/>
<line x1="2035" y1="485.5" x2="837" y2="485.5" stroke="#313131"/>
<line x1="2030" y1="668.5" x2="832" y2="668.5" stroke="#313131"/>
<line x1="1171" y1="120.5" x2="-27" y2="120.5" stroke="#313131"/>
<line x1="2004" y1="120.5" x2="806" y2="120.5" stroke="#313131"/>
<line x1="2035" y1="363.5" x2="837" y2="363.5" stroke="#313131"/>
<line x1="2035" y1="546.5" x2="837" y2="546.5" stroke="#313131"/>
<line x1="2030" y1="728.5" x2="832" y2="728.5" stroke="#313131"/>
<line x1="1171" y1="181.5" x2="-27" y2="181.5" stroke="#313131"/>
<line x1="2004" y1="181.5" x2="806" y2="181.5" stroke="#313131"/>
<line x1="2035" y1="424.5" x2="837" y2="424.5" stroke="#313131"/>
<line x1="2030" y1="607.5" x2="832" y2="607.5" stroke="#313131"/>
<line x1="2030" y1="789.5" x2="832" y2="789.5" stroke="#313131"/>
<line x1="1171" y1="242.5" x2="-27" y2="242.5" stroke="#313131"/>
<line x1="2004" y1="242.5" x2="806" y2="242.5" stroke="#313131"/>
<line x1="2035" y1="485.5" x2="837" y2="485.5" stroke="#313131"/>
<line x1="2030" y1="668.5" x2="832" y2="668.5" stroke="#313131"/>
<line x1="1171" y1="303.5" x2="-27" y2="303.5" stroke="#313131"/>
<line x1="1171" y1="363.5" x2="-27" y2="363.5" stroke="#313131"/>
<line x1="1171" y1="424.5" x2="-27" y2="424.5" stroke="#313131"/>
<line x1="1166" y1="607.5" x2="-32" y2="607.5" stroke="#313131"/>
<line x1="1171" y1="485.5" x2="-27" y2="485.5" stroke="#313131"/>
<line x1="1166" y1="668.5" x2="-32" y2="668.5" stroke="#313131"/>
<line x1="1171" y1="546.5" x2="-27" y2="546.5" stroke="#313131"/>
<line x1="1166" y1="728.5" x2="-32" y2="728.5" stroke="#313131"/>
<line x1="1166" y1="789.5" x2="-32" y2="789.5" stroke="#313131"/>
</g>
<defs>
<clipPath id="clip0_1613_7681">
<rect width="1418" height="834" fill="white"/>
</clipPath>
</defs>
</svg>
