<svg width="135" height="54" viewBox="0 0 135 54" fill="none" xmlns="http://www.w3.org/2000/svg">
<rect width="135" height="54" rx="27" fill="#B7B7B7" fill-opacity="0.2"/>
<path d="M29.864 23.4C29.864 20.184 32.576 17.904 36.392 17.904C40.208 17.904 42.608 20.016 42.608 23.376H38.744C38.744 22.128 37.808 21.36 36.344 21.36C34.76 21.36 33.752 22.08 33.752 23.256C33.752 24.336 34.304 24.864 35.552 25.128L38.216 25.68C41.384 26.328 42.896 27.84 42.896 30.648C42.896 34.08 40.208 36.312 36.128 36.312C32.168 36.312 29.6 34.176 29.6 30.84H33.464C33.464 32.136 34.424 32.856 36.152 32.856C37.904 32.856 39.008 32.16 39.008 31.032C39.008 30.048 38.552 29.544 37.376 29.304L34.664 28.752C31.496 28.104 29.864 26.304 29.864 23.4ZM43.7266 21.84V18.24H57.6946V21.84H52.6546V36H48.7666V21.84H43.7266ZM60.734 36H56.678L63.014 18.24H66.806L73.118 36H68.99L67.742 32.256H62.006L60.734 36ZM64.406 25.2L63.134 28.992H66.638L65.366 25.2C65.174 24.6 64.958 23.904 64.886 23.472C64.814 23.88 64.622 24.552 64.406 25.2ZM78.929 36H75.041V18.24H81.905C86.225 18.24 88.673 20.328 88.673 24C88.673 26.304 87.689 27.936 85.721 28.944L88.841 36H84.593L81.929 29.784H78.929V36ZM78.929 21.696V26.376H81.881C83.585 26.376 84.569 25.512 84.569 24C84.569 22.512 83.633 21.696 81.905 21.696H78.929ZM89.8181 21.84V18.24H103.786V21.84H98.7461V36H94.8581V21.84H89.8181Z" fill="white"/>
</svg>
